<svg width="114" height="47" viewBox="0 0 114 47" fill="none" xmlns="http://www.w3.org/2000/svg">
<path d="M43.136 0.143997L24.448 46H18.88L0.192 0.143997H5.152C5.70667 0.143997 6.15467 0.282664 6.496 0.559998C6.83733 0.837331 7.09333 1.18933 7.264 1.616L20.192 33.968C20.4693 34.6933 20.736 35.4827 20.992 36.336C21.2693 37.1893 21.5147 38.0853 21.728 39.024C21.9413 38.0853 22.1653 37.1893 22.4 36.336C22.6347 35.4827 22.8907 34.6933 23.168 33.968L36.064 1.616C36.192 1.25333 36.4373 0.922665 36.8 0.623997C37.184 0.303997 37.6427 0.143997 38.176 0.143997H43.136ZM42.177 42.48C42.177 41.9253 42.273 41.4027 42.465 40.912C42.6783 40.4213 42.9557 39.9947 43.297 39.632C43.6597 39.2693 44.0863 38.9813 44.577 38.768C45.0677 38.5547 45.5903 38.448 46.145 38.448C46.6997 38.448 47.2223 38.5547 47.713 38.768C48.2037 38.9813 48.6303 39.2693 48.993 39.632C49.3557 39.9947 49.6437 40.4213 49.857 40.912C50.0703 41.4027 50.177 41.9253 50.177 42.48C50.177 43.056 50.0703 43.5893 49.857 44.08C49.6437 44.5493 49.3557 44.9653 48.993 45.328C48.6303 45.6907 48.2037 45.968 47.713 46.16C47.2223 46.3733 46.6997 46.48 46.145 46.48C45.5903 46.48 45.0677 46.3733 44.577 46.16C44.0863 45.968 43.6597 45.6907 43.297 45.328C42.9557 44.9653 42.6783 44.5493 42.465 44.08C42.273 43.5893 42.177 43.056 42.177 42.48ZM105.052 5.36H90.2035V46H84.0275V5.36H69.1475V0.143997H105.052V5.36ZM105.052 42.48C105.052 41.9253 105.148 41.4027 105.34 40.912C105.553 40.4213 105.831 39.9947 106.172 39.632C106.535 39.2693 106.961 38.9813 107.452 38.768C107.943 38.5547 108.465 38.448 109.02 38.448C109.575 38.448 110.097 38.5547 110.588 38.768C111.079 38.9813 111.505 39.2693 111.868 39.632C112.231 39.9947 112.519 40.4213 112.732 40.912C112.945 41.4027 113.052 41.9253 113.052 42.48C113.052 43.056 112.945 43.5893 112.732 44.08C112.519 44.5493 112.231 44.9653 111.868 45.328C111.505 45.6907 111.079 45.968 110.588 46.16C110.097 46.3733 109.575 46.48 109.02 46.48C108.465 46.48 107.943 46.3733 107.452 46.16C106.961 45.968 106.535 45.6907 106.172 45.328C105.831 44.9653 105.553 44.5493 105.34 44.08C105.148 43.5893 105.052 43.056 105.052 42.48Z" fill="white"/>
</svg>
