<svg width="213" height="37" viewBox="0 0 213 37" fill="none" xmlns="http://www.w3.org/2000/svg">
<path d="M0.82 30V9.74H2.96C3.46667 9.74 3.78 9.98667 3.9 10.48L4.16 12.56C4.90667 11.64 5.74667 10.8867 6.68 10.3C7.61333 9.71333 8.69333 9.42 9.92 9.42C11.28 9.42 12.38 9.8 13.22 10.56C14.0733 11.32 14.6867 12.3467 15.06 13.64C15.3533 12.9067 15.7267 12.2733 16.18 11.74C16.6467 11.2067 17.1667 10.7667 17.74 10.42C18.3133 10.0733 18.92 9.82 19.56 9.66C20.2133 9.5 20.8733 9.42 21.54 9.42C22.6067 9.42 23.5533 9.59333 24.38 9.94C25.22 10.2733 25.9267 10.7667 26.5 11.42C27.0867 12.0733 27.5333 12.88 27.84 13.84C28.1467 14.7867 28.3 15.8733 28.3 17.1V30H24.72V17.1C24.72 15.5133 24.3733 14.3133 23.68 13.5C22.9867 12.6733 21.9867 12.26 20.68 12.26C20.0933 12.26 19.5333 12.3667 19 12.58C18.48 12.78 18.02 13.08 17.62 13.48C17.22 13.88 16.9 14.3867 16.66 15C16.4333 15.6 16.32 16.3 16.32 17.1V30H12.74V17.1C12.74 15.4733 12.4133 14.26 11.76 13.46C11.1067 12.66 10.1533 12.26 8.9 12.26C8.02 12.26 7.20667 12.5 6.46 12.98C5.71333 13.4467 5.02667 14.0867 4.4 14.9V30H0.82ZM50.6828 9.74L39.3828 35.98C39.2628 36.2467 39.1095 36.46 38.9228 36.62C38.7495 36.78 38.4761 36.86 38.1028 36.86H35.4628L39.1628 28.82L30.8028 9.74H33.8828C34.1895 9.74 34.4295 9.82 34.6028 9.98C34.7895 10.1267 34.9161 10.2933 34.9828 10.48L40.4028 23.24C40.6161 23.8 40.7961 24.3867 40.9428 25C41.1295 24.3733 41.3295 23.78 41.5428 23.22L46.8028 10.48C46.8828 10.2667 47.0161 10.0933 47.2028 9.96C47.4028 9.81333 47.6228 9.74 47.8628 9.74H50.6828ZM68.0678 33.3V35.7H52.3078V33.3H68.0678ZM83.9872 13.08C83.8272 13.3733 83.5805 13.52 83.2472 13.52C83.0472 13.52 82.8205 13.4467 82.5672 13.3C82.3139 13.1533 82.0005 12.9933 81.6272 12.82C81.2672 12.6333 80.8339 12.4667 80.3272 12.32C79.8205 12.16 79.2205 12.08 78.5272 12.08C77.9272 12.08 77.3872 12.16 76.9072 12.32C76.4272 12.4667 76.0139 12.6733 75.6672 12.94C75.3339 13.2067 75.0739 13.52 74.8872 13.88C74.7139 14.2267 74.6272 14.6067 74.6272 15.02C74.6272 15.54 74.7739 15.9733 75.0672 16.32C75.3739 16.6667 75.7739 16.9667 76.2672 17.22C76.7605 17.4733 77.3205 17.7 77.9472 17.9C78.5739 18.0867 79.2139 18.2933 79.8672 18.52C80.5339 18.7333 81.1805 18.9733 81.8072 19.24C82.4339 19.5067 82.9939 19.84 83.4872 20.24C83.9805 20.64 84.3739 21.1333 84.6672 21.72C84.9739 22.2933 85.1272 22.9867 85.1272 23.8C85.1272 24.7333 84.9605 25.6 84.6272 26.4C84.2939 27.1867 83.8005 27.8733 83.1472 28.46C82.4939 29.0333 81.6939 29.4867 80.7472 29.82C79.8005 30.1533 78.7072 30.32 77.4672 30.32C76.0539 30.32 74.7739 30.0933 73.6272 29.64C72.4805 29.1733 71.5072 28.58 70.7072 27.86L71.5472 26.5C71.6539 26.3267 71.7805 26.1933 71.9272 26.1C72.0739 26.0067 72.2605 25.96 72.4872 25.96C72.7272 25.96 72.9805 26.0533 73.2472 26.24C73.5139 26.4267 73.8339 26.6333 74.2072 26.86C74.5939 27.0867 75.0605 27.2933 75.6072 27.48C76.1539 27.6667 76.8339 27.76 77.6472 27.76C78.3405 27.76 78.9472 27.6733 79.4672 27.5C79.9872 27.3133 80.4205 27.0667 80.7672 26.76C81.1139 26.4533 81.3672 26.1 81.5272 25.7C81.7005 25.3 81.7872 24.8733 81.7872 24.42C81.7872 23.86 81.6339 23.4 81.3272 23.04C81.0339 22.6667 80.6405 22.3533 80.1472 22.1C79.6539 21.8333 79.0872 21.6067 78.4472 21.42C77.8205 21.22 77.1739 21.0133 76.5072 20.8C75.8539 20.5867 75.2072 20.3467 74.5672 20.08C73.9405 19.8 73.3805 19.4533 72.8872 19.04C72.3939 18.6267 71.9939 18.12 71.6872 17.52C71.3939 16.9067 71.2472 16.1667 71.2472 15.3C71.2472 14.5267 71.4072 13.7867 71.7272 13.08C72.0472 12.36 72.5139 11.7333 73.1272 11.2C73.7405 10.6533 74.4939 10.22 75.3872 9.9C76.2805 9.58 77.3005 9.42 78.4472 9.42C79.7805 9.42 80.9739 9.63333 82.0272 10.06C83.0939 10.4733 84.0139 11.0467 84.7872 11.78L83.9872 13.08ZM93.2519 9.74V30H89.6919V9.74H93.2519ZM94.0119 3.38C94.0119 3.72667 93.9385 4.05333 93.7919 4.36C93.6585 4.65333 93.4719 4.92 93.2319 5.16C93.0052 5.38667 92.7319 5.56667 92.4119 5.7C92.1052 5.83333 91.7785 5.9 91.4319 5.9C91.0852 5.9 90.7585 5.83333 90.4519 5.7C90.1585 5.56667 89.8985 5.38667 89.6719 5.16C89.4452 4.92 89.2652 4.65333 89.1319 4.36C88.9985 4.05333 88.9319 3.72667 88.9319 3.38C88.9319 3.03333 88.9985 2.70666 89.1319 2.4C89.2652 2.08 89.4452 1.80667 89.6719 1.58C89.8985 1.34 90.1585 1.15333 90.4519 1.02C90.7585 0.886664 91.0852 0.819998 91.4319 0.819998C91.7785 0.819998 92.1052 0.886664 92.4119 1.02C92.7319 1.15333 93.0052 1.34 93.2319 1.58C93.4719 1.80667 93.6585 2.08 93.7919 2.4C93.9385 2.70666 94.0119 3.03333 94.0119 3.38ZM105.321 30.32C103.721 30.32 102.488 29.8733 101.621 28.98C100.768 28.0867 100.341 26.8 100.341 25.12V12.72H97.9013C97.6879 12.72 97.5079 12.66 97.3613 12.54C97.2146 12.4067 97.1413 12.2067 97.1413 11.94V10.52L100.461 10.1L101.281 3.84C101.321 3.64 101.408 3.48 101.541 3.36C101.688 3.22667 101.875 3.16 102.101 3.16H103.901V10.14H109.761V12.72H103.901V24.88C103.901 25.7333 104.108 26.3667 104.521 26.78C104.935 27.1933 105.468 27.4 106.121 27.4C106.495 27.4 106.815 27.3533 107.081 27.26C107.361 27.1533 107.601 27.04 107.801 26.92C108.001 26.8 108.168 26.6933 108.301 26.6C108.448 26.4933 108.575 26.44 108.681 26.44C108.868 26.44 109.035 26.5533 109.181 26.78L110.221 28.48C109.608 29.0533 108.868 29.5067 108.001 29.84C107.135 30.16 106.241 30.32 105.321 30.32ZM126.88 17.66C126.88 16.8333 126.76 16.08 126.52 15.4C126.293 14.7067 125.953 14.1133 125.5 13.62C125.06 13.1133 124.52 12.7267 123.88 12.46C123.24 12.18 122.513 12.04 121.7 12.04C119.993 12.04 118.64 12.54 117.64 13.54C116.653 14.5267 116.04 15.9 115.8 17.66H126.88ZM129.76 27.16C129.32 27.6933 128.793 28.16 128.18 28.56C127.567 28.9467 126.907 29.2667 126.2 29.52C125.507 29.7733 124.787 29.96 124.04 30.08C123.293 30.2133 122.553 30.28 121.82 30.28C120.42 30.28 119.127 30.0467 117.94 29.58C116.767 29.1 115.747 28.4067 114.88 27.5C114.027 26.58 113.36 25.4467 112.88 24.1C112.4 22.7533 112.16 21.2067 112.16 19.46C112.16 18.0467 112.373 16.7267 112.8 15.5C113.24 14.2733 113.867 13.2133 114.68 12.32C115.493 11.4133 116.487 10.7067 117.66 10.2C118.833 9.68 120.153 9.42 121.62 9.42C122.833 9.42 123.953 9.62667 124.98 10.04C126.02 10.44 126.913 11.0267 127.66 11.8C128.42 12.56 129.013 13.5067 129.44 14.64C129.867 15.76 130.08 17.04 130.08 18.48C130.08 19.04 130.02 19.4133 129.9 19.6C129.78 19.7867 129.553 19.88 129.22 19.88H115.68C115.72 21.16 115.893 22.2733 116.2 23.22C116.52 24.1667 116.96 24.96 117.52 25.6C118.08 26.2267 118.747 26.7 119.52 27.02C120.293 27.3267 121.16 27.48 122.12 27.48C123.013 27.48 123.78 27.38 124.42 27.18C125.073 26.9667 125.633 26.74 126.1 26.5C126.567 26.26 126.953 26.04 127.26 25.84C127.58 25.6267 127.853 25.52 128.08 25.52C128.373 25.52 128.6 25.6333 128.76 25.86L129.76 27.16ZM133.853 27.8C133.853 27.4533 133.913 27.1267 134.033 26.82C134.166 26.5133 134.339 26.2467 134.553 26.02C134.779 25.7933 135.046 25.6133 135.353 25.48C135.659 25.3467 135.986 25.28 136.333 25.28C136.679 25.28 137.006 25.3467 137.313 25.48C137.619 25.6133 137.886 25.7933 138.113 26.02C138.339 26.2467 138.519 26.5133 138.653 26.82C138.786 27.1267 138.853 27.4533 138.853 27.8C138.853 28.16 138.786 28.4933 138.653 28.8C138.519 29.0933 138.339 29.3533 138.113 29.58C137.886 29.8067 137.619 29.98 137.313 30.1C137.006 30.2333 136.679 30.3 136.333 30.3C135.986 30.3 135.659 30.2333 135.353 30.1C135.046 29.98 134.779 29.8067 134.553 29.58C134.339 29.3533 134.166 29.0933 134.033 28.8C133.913 28.4933 133.853 28.16 133.853 27.8ZM158.006 13.34C157.899 13.4867 157.793 13.6 157.686 13.68C157.579 13.76 157.433 13.8 157.246 13.8C157.046 13.8 156.826 13.72 156.586 13.56C156.346 13.3867 156.046 13.2 155.686 13C155.339 12.8 154.906 12.62 154.386 12.46C153.879 12.2867 153.253 12.2 152.506 12.2C151.506 12.2 150.626 12.38 149.866 12.74C149.106 13.0867 148.466 13.5933 147.946 14.26C147.439 14.9267 147.053 15.7333 146.786 16.68C146.533 17.6267 146.406 18.6867 146.406 19.86C146.406 21.0867 146.546 22.18 146.826 23.14C147.106 24.0867 147.499 24.8867 148.006 25.54C148.526 26.18 149.146 26.6733 149.866 27.02C150.599 27.3533 151.419 27.52 152.326 27.52C153.193 27.52 153.906 27.42 154.466 27.22C155.026 27.0067 155.486 26.7733 155.846 26.52C156.219 26.2667 156.526 26.04 156.766 25.84C157.019 25.6267 157.266 25.52 157.506 25.52C157.799 25.52 158.026 25.6333 158.186 25.86L159.186 27.16C158.746 27.7067 158.246 28.1733 157.686 28.56C157.126 28.9467 156.519 29.2733 155.866 29.54C155.226 29.7933 154.553 29.98 153.846 30.1C153.139 30.22 152.419 30.28 151.686 30.28C150.419 30.28 149.239 30.0467 148.146 29.58C147.066 29.1133 146.126 28.44 145.326 27.56C144.526 26.6667 143.899 25.5733 143.446 24.28C142.993 22.9867 142.766 21.5133 142.766 19.86C142.766 18.3533 142.973 16.96 143.386 15.68C143.813 14.4 144.426 13.3 145.226 12.38C146.039 11.4467 147.033 10.72 148.206 10.2C149.393 9.68 150.753 9.42 152.286 9.42C153.713 9.42 154.966 9.65333 156.046 10.12C157.139 10.5733 158.106 11.22 158.946 12.06L158.006 13.34ZM171.196 9.42C172.676 9.42 174.009 9.66667 175.196 10.16C176.383 10.6533 177.396 11.3533 178.236 12.26C179.076 13.1667 179.716 14.2667 180.156 15.56C180.609 16.84 180.836 18.2733 180.836 19.86C180.836 21.46 180.609 22.9 180.156 24.18C179.716 25.46 179.076 26.5533 178.236 27.46C177.396 28.3667 176.383 29.0667 175.196 29.56C174.009 30.04 172.676 30.28 171.196 30.28C169.703 30.28 168.356 30.04 167.156 29.56C165.969 29.0667 164.956 28.3667 164.116 27.46C163.276 26.5533 162.629 25.46 162.176 24.18C161.736 22.9 161.516 21.46 161.516 19.86C161.516 18.2733 161.736 16.84 162.176 15.56C162.629 14.2667 163.276 13.1667 164.116 12.26C164.956 11.3533 165.969 10.6533 167.156 10.16C168.356 9.66667 169.703 9.42 171.196 9.42ZM171.196 27.5C173.196 27.5 174.689 26.8333 175.676 25.5C176.663 24.1533 177.156 22.28 177.156 19.88C177.156 17.4667 176.663 15.5867 175.676 14.24C174.689 12.8933 173.196 12.22 171.196 12.22C170.183 12.22 169.296 12.3933 168.536 12.74C167.789 13.0867 167.163 13.5867 166.656 14.24C166.163 14.8933 165.789 15.7 165.536 16.66C165.296 17.6067 165.176 18.68 165.176 19.88C165.176 22.28 165.669 24.1533 166.656 25.5C167.656 26.8333 169.169 27.5 171.196 27.5ZM185.351 30V9.74H187.491C187.998 9.74 188.311 9.98667 188.431 10.48L188.691 12.56C189.438 11.64 190.278 10.8867 191.211 10.3C192.145 9.71333 193.225 9.42 194.451 9.42C195.811 9.42 196.911 9.8 197.751 10.56C198.605 11.32 199.218 12.3467 199.591 13.64C199.885 12.9067 200.258 12.2733 200.711 11.74C201.178 11.2067 201.698 10.7667 202.271 10.42C202.845 10.0733 203.451 9.82 204.091 9.66C204.745 9.5 205.405 9.42 206.071 9.42C207.138 9.42 208.085 9.59333 208.911 9.94C209.751 10.2733 210.458 10.7667 211.031 11.42C211.618 12.0733 212.065 12.88 212.371 13.84C212.678 14.7867 212.831 15.8733 212.831 17.1V30H209.251V17.1C209.251 15.5133 208.905 14.3133 208.211 13.5C207.518 12.6733 206.518 12.26 205.211 12.26C204.625 12.26 204.065 12.3667 203.531 12.58C203.011 12.78 202.551 13.08 202.151 13.48C201.751 13.88 201.431 14.3867 201.191 15C200.965 15.6 200.851 16.3 200.851 17.1V30H197.271V17.1C197.271 15.4733 196.945 14.26 196.291 13.46C195.638 12.66 194.685 12.26 193.431 12.26C192.551 12.26 191.738 12.5 190.991 12.98C190.245 13.4467 189.558 14.0867 188.931 14.9V30H185.351Z" fill="white"/>
</svg>
